<svg data-v-423bf9ae="" xmlns="http://www.w3.org/2000/svg" viewBox="0 0 341.2463007981241 60" class="font"><!----><!----><!----><g data-v-423bf9ae="" id="fa82e580-5861-4005-bc1d-300e55cb3382" fill="#007d9c" transform="matrix(5.842258203896284,0,0,5.842258203896284,-4.49854161698957,-16.708859243168995)"><path d="M5.92 13.13L5.92 13.13Q4.62 13.13 3.65 12.76Q2.69 12.39 2.04 11.72Q1.40 11.04 1.09 10.09Q0.77 9.14 0.77 7.98L0.77 7.98Q0.77 6.85 1.11 5.91Q1.44 4.96 2.10 4.29Q2.75 3.61 3.73 3.23Q4.71 2.86 6.00 2.86L6.00 2.86Q6.87 2.86 7.52 2.98Q8.18 3.11 8.62 3.33Q9.06 3.55 9.28 3.85Q9.50 4.14 9.50 4.48L9.50 4.48Q9.50 4.73 9.38 4.95Q9.26 5.16 9.03 5.33Q8.80 5.49 8.46 5.58Q8.13 5.67 7.68 5.67L7.68 5.67Q7.68 5.25 7.58 4.89Q7.48 4.54 7.26 4.29Q7.05 4.03 6.72 3.89Q6.39 3.75 5.95 3.75L5.95 3.75Q5.18 3.75 4.65 4.03Q4.11 4.31 3.77 4.85Q3.43 5.39 3.28 6.18Q3.12 6.97 3.12 7.98L3.12 7.98Q3.12 9.00 3.28 9.78Q3.45 10.56 3.80 11.09Q4.16 11.63 4.73 11.90Q5.30 12.18 6.13 12.18L6.13 12.18Q6.39 12.18 6.65 12.16Q6.91 12.14 7.16 12.09L7.16 12.09L7.16 10.03Q7.16 9.47 6.90 9.25Q6.65 9.03 6.16 9.03L6.16 9.03L5.97 9.03L5.97 8.29L10.38 8.29L10.38 9.03L10.19 9.03Q9.98 9.03 9.82 9.08Q9.67 9.13 9.56 9.26Q9.46 9.38 9.41 9.58Q9.37 9.78 9.37 10.08L9.37 10.08L9.37 12.38Q8.54 12.76 7.71 12.94Q6.88 13.13 5.92 13.13ZM18.69 9.21L18.69 9.21Q18.69 11.19 17.76 12.16Q16.84 13.13 15.04 13.13L15.04 13.13Q14.20 13.13 13.53 12.89Q12.86 12.65 12.39 12.16Q11.92 11.68 11.67 10.94Q11.42 10.20 11.42 9.21L11.42 9.21Q11.42 7.24 12.35 6.28Q13.28 5.31 15.08 5.31L15.08 5.31Q15.92 5.31 16.59 5.55Q17.25 5.79 17.72 6.28Q18.19 6.76 18.44 7.50Q18.69 8.23 18.69 9.21ZM13.60 9.21L13.60 9.21Q13.60 9.96 13.68 10.53Q13.75 11.09 13.93 11.48Q14.10 11.86 14.38 12.06Q14.66 12.25 15.07 12.25L15.07 12.25Q15.47 12.25 15.75 12.06Q16.02 11.86 16.20 11.48Q16.37 11.09 16.45 10.53Q16.52 9.96 16.52 9.21L16.52 9.21Q16.52 8.46 16.44 7.90Q16.37 7.33 16.19 6.96Q16.02 6.58 15.74 6.40Q15.46 6.21 15.05 6.21L15.05 6.21Q14.65 6.21 14.37 6.40Q14.09 6.58 13.92 6.96Q13.75 7.33 13.67 7.90Q13.60 8.46 13.60 9.21ZM25.03 3.86L25.03 11.34Q25.03 11.64 25.08 11.82Q25.14 12.00 25.23 12.09Q25.33 12.19 25.46 12.22Q25.59 12.25 25.74 12.25L25.74 12.25L26.33 12.25L26.33 13.00L21.50 13.00L21.50 12.25L22.09 12.25Q22.24 12.25 22.37 12.22Q22.50 12.19 22.60 12.09Q22.70 12.00 22.75 11.82Q22.80 11.64 22.80 11.34L22.80 11.34L22.80 3.86L21.68 3.86Q21.37 3.86 21.16 3.92Q20.95 3.99 20.81 4.12Q20.68 4.25 20.61 4.43Q20.55 4.61 20.52 4.85L20.52 4.85L20.43 5.71L19.48 5.71L19.56 3.00L28.28 3.00L28.35 5.71L27.41 5.71L27.31 4.85Q27.28 4.61 27.22 4.43Q27.15 4.25 27.02 4.12Q26.89 3.99 26.67 3.92Q26.46 3.86 26.15 3.86L26.15 3.86L25.03 3.86ZM37.47 13.00L34.69 13.00L34.38 12.00L34.31 12.00Q34.10 12.37 33.85 12.59Q33.61 12.81 33.33 12.93Q33.04 13.05 32.73 13.09Q32.42 13.13 32.09 13.13L32.09 13.13Q31.00 13.13 30.42 12.46Q29.83 11.78 29.83 10.36L29.83 10.36L29.83 7.23Q29.83 6.92 29.78 6.73Q29.72 6.54 29.61 6.43Q29.49 6.32 29.31 6.28Q29.13 6.23 28.88 6.23L28.88 6.23L28.85 6.23L28.85 5.49L31.96 5.49L31.96 9.97Q31.96 10.42 32.01 10.79Q32.06 11.15 32.18 11.41Q32.31 11.66 32.51 11.80Q32.72 11.94 33.02 11.94L33.02 11.94Q33.36 11.94 33.60 11.80Q33.84 11.65 34.00 11.37Q34.15 11.09 34.22 10.70Q34.30 10.31 34.30 9.82L34.30 9.82L34.30 7.13Q34.30 6.82 34.21 6.64Q34.13 6.47 34.00 6.37Q33.86 6.28 33.67 6.26Q33.49 6.23 33.28 6.23L33.28 6.23L33.24 6.23L33.24 5.49L36.42 5.49L36.42 11.37Q36.42 11.68 36.49 11.85Q36.57 12.02 36.69 12.11Q36.81 12.20 36.98 12.23Q37.15 12.25 37.36 12.25L37.36 12.25L37.47 12.25L37.47 13.00ZM42.22 12.00L42.22 12.00Q42.49 12.00 42.74 11.97Q42.99 11.93 43.21 11.87L43.21 11.87L43.21 12.78Q43.10 12.84 42.91 12.90Q42.72 12.96 42.48 13.01Q42.23 13.06 41.91 13.10Q41.60 13.13 41.23 13.13L41.23 13.13Q40.76 13.13 40.37 13.02Q39.99 12.91 39.72 12.64Q39.46 12.38 39.31 11.96Q39.17 11.54 39.17 10.92L39.17 10.92L39.17 6.45L38.12 6.45L38.12 5.73Q38.57 5.73 38.92 5.55Q39.28 5.37 39.49 5.14L39.49 5.14Q39.92 4.69 40.13 3.75L40.13 3.75L41.30 3.75L41.30 5.49L43.09 5.49L43.09 6.45L41.30 6.45L41.30 10.78Q41.30 11.42 41.51 11.71Q41.73 12.00 42.22 12.00ZM51.41 9.21L51.41 9.21Q51.41 11.19 50.49 12.16Q49.56 13.13 47.76 13.13L47.76 13.13Q46.92 13.13 46.25 12.89Q45.58 12.65 45.11 12.16Q44.65 11.68 44.40 10.94Q44.15 10.20 44.15 9.21L44.15 9.21Q44.15 7.24 45.07 6.28Q46.00 5.31 47.80 5.31L47.80 5.31Q48.64 5.31 49.31 5.55Q49.98 5.79 50.45 6.28Q50.91 6.76 51.16 7.50Q51.41 8.23 51.41 9.21ZM46.32 9.21L46.32 9.21Q46.32 9.96 46.40 10.53Q46.48 11.09 46.65 11.48Q46.83 11.86 47.11 12.06Q47.39 12.25 47.79 12.25L47.79 12.25Q48.19 12.25 48.47 12.06Q48.75 11.86 48.92 11.48Q49.10 11.09 49.17 10.53Q49.25 9.96 49.25 9.21L49.25 9.21Q49.25 8.46 49.17 7.90Q49.09 7.33 48.91 6.96Q48.74 6.58 48.46 6.40Q48.18 6.21 47.78 6.21L47.78 6.21Q47.37 6.21 47.09 6.40Q46.81 6.58 46.64 6.96Q46.47 7.33 46.40 7.90Q46.32 8.46 46.32 9.21ZM57.03 12.25L57.03 13.00L52.35 13.00L52.35 12.25L52.39 12.25Q52.63 12.25 52.83 12.22Q53.03 12.18 53.17 12.08Q53.31 11.97 53.39 11.77Q53.47 11.57 53.47 11.25L53.47 11.25L53.47 7.18Q53.47 6.88 53.40 6.69Q53.33 6.50 53.19 6.40Q53.06 6.30 52.88 6.27Q52.69 6.23 52.46 6.23L52.46 6.23L52.42 6.23L52.42 5.49L55.25 5.49L55.53 6.58L55.60 6.58Q55.73 6.27 55.90 6.03Q56.06 5.80 56.29 5.64Q56.52 5.48 56.83 5.40Q57.14 5.33 57.57 5.33L57.57 5.33Q58.40 5.33 58.79 5.62Q59.18 5.91 59.18 6.46L59.18 6.46Q59.18 7.10 58.71 7.46Q58.25 7.81 57.40 7.81L57.40 7.81Q57.40 7.53 57.37 7.31Q57.34 7.09 57.26 6.95Q57.18 6.80 57.05 6.73Q56.92 6.65 56.72 6.65L56.72 6.65Q56.47 6.65 56.29 6.77Q56.12 6.90 55.99 7.09Q55.87 7.29 55.79 7.53Q55.71 7.78 55.67 8.03Q55.62 8.28 55.61 8.50Q55.60 8.73 55.60 8.89L55.60 8.89L55.60 11.31Q55.60 11.62 55.67 11.81Q55.75 12.00 55.88 12.09Q56.01 12.19 56.19 12.22Q56.37 12.25 56.57 12.25L56.57 12.25L57.03 12.25Z"></path></g><!----><!----></svg>